<?xml version="1.0" encoding="utf-8"?>
<!DOCTYPE svg PUBLIC "-//W3C//DTD SVG 20010904//EN" "http://www.w3.org/TR/2001/REC-SVG-20010904/DTD/svg10.dtd">
<svg version="1.0" xmlns="http://www.w3.org/2000/svg" width="602pt" height="602pt" viewBox="0 0 602 602" style="" preserveAspectRatio="xMidYMid meet">
<g fill="#FEFEFEFE" stroke="#FEFEFEFE">
<path d="M 1.000 301.000 L 1.000 601.000 301.000 601.000 L 601.000 601.000 601.000 301.000 L 601.000 1.000 301.000 1.000 L 1.000 1.000 1.000 301.000 M 203.500 54.732 C 210.688 57.150 223.212 62.918 228.497 66.243 C 234.458 69.995 243.724 77.992 250.182 84.959 C 279.543 116.633 286.350 163.976 267.273 203.822 C 264.796 208.996 260.268 216.765 259.009 218.000 C 258.729 218.275 257.075 220.339 255.334 222.586 L 252.169 226.673 264.320 237.763 C 272.563 245.287 276.834 248.553 277.598 247.919 C 278.217 247.405 280.887 243.275 283.530 238.742 C 291.491 225.088 300.153 211.023 300.875 210.577 C 301.249 210.346 304.692 215.487 308.527 222.002 C 312.362 228.516 317.657 237.295 320.293 241.511 L 325.086 249.176 329.295 245.338 C 331.611 243.227 337.187 238.152 341.686 234.059 L 349.867 226.619 346.148 222.059 C 312.943 181.346 317.636 116.916 356.500 79.956 C 361.200 75.487 369.157 69.082 373.548 66.234 C 377.855 63.441 393.460 56.000 395.011 56.000 C 395.922 56.000 396.981 55.686 397.364 55.303 C 399.311 53.355 412.773 50.896 424.500 50.344 C 452.570 49.025 475.385 55.750 495.500 71.274 C 508.126 81.018 519.968 95.148 526.836 108.662 C 539.127 132.848 541.385 164.876 532.618 190.652 C 527.905 204.511 522.926 213.410 513.402 225.000 C 497.932 243.825 477.690 256.214 453.500 261.663 C 442.398 264.164 419.496 264.178 408.500 261.690 C 392.741 258.126 377.151 250.775 365.383 241.361 C 362.147 238.773 358.937 236.227 358.249 235.705 C 357.359 235.028 355.057 236.623 350.249 241.250 C 346.537 244.823 339.338 251.514 334.250 256.118 L 325.000 264.489 325.000 294.169 L 325.000 323.849 341.750 339.174 C 350.963 347.603 359.371 355.286 360.437 356.248 C 362.651 358.247 361.988 358.592 372.635 349.885 C 385.813 339.107 402.724 331.286 420.234 327.872 C 423.680 327.200 432.800 326.684 440.500 326.727 C 452.783 326.794 455.849 327.170 465.500 329.795 C 482.740 334.484 492.452 339.273 505.936 349.732 C 511.879 354.342 521.412 364.260 526.862 371.503 C 529.526 375.042 536.347 387.510 538.445 392.672 C 543.546 405.225 545.256 413.721 545.757 429.000 C 546.476 450.928 543.804 463.622 534.554 482.213 C 529.921 491.524 528.810 493.159 519.454 504.424 C 503.277 523.902 474.635 538.153 447.000 540.476 C 432.150 541.723 411.620 538.288 397.928 532.264 C 395.492 531.192 392.038 529.740 390.250 529.037 C 388.463 528.333 387.000 527.472 387.000 527.123 C 387.000 526.774 385.605 525.871 383.900 525.116 C 379.276 523.069 366.922 512.813 360.059 505.323 C 342.177 485.808 332.006 459.517 332.001 432.799 C 331.998 411.827 340.271 386.983 352.849 370.191 C 355.285 366.939 355.294 366.852 353.413 365.082 C 352.361 364.091 345.650 357.938 338.500 351.407 L 325.500 339.534 325.000 345.811 L 324.500 352.088 301.000 352.087 L 277.500 352.085 277.000 342.318 L 276.500 332.552 269.040 339.526 C 264.937 343.362 260.426 347.625 259.017 349.000 C 257.607 350.375 253.579 354.055 250.065 357.178 C 243.778 362.766 243.702 362.893 245.341 365.178 C 246.257 366.455 248.786 369.975 250.962 373.000 C 256.915 381.277 262.968 394.005 265.509 403.590 C 268.595 415.232 270.000 424.647 270.000 433.701 C 270.000 451.384 264.238 472.343 255.209 487.500 C 248.023 499.564 238.918 509.754 227.000 519.072 C 201.752 538.811 165.507 545.643 134.000 536.600 C 124.649 533.916 115.733 530.366 111.688 527.715 C 110.248 526.772 108.717 525.996 108.285 525.990 C 107.853 525.985 103.242 522.723 98.037 518.740 C 80.988 505.696 68.131 487.958 61.374 468.162 C 56.698 454.462 55.654 446.196 56.301 428.000 C 56.784 414.427 57.223 411.356 59.834 403.298 C 62.922 393.763 71.001 376.498 73.863 373.314 C 74.763 372.312 77.386 369.019 79.691 365.996 C 96.123 344.449 125.729 328.927 155.000 326.513 C 169.896 325.284 190.397 328.720 204.072 334.736 C 206.508 335.808 209.963 337.260 211.750 337.963 C 213.538 338.667 215.000 339.528 215.000 339.877 C 215.000 340.226 216.391 341.127 218.090 341.880 C 219.790 342.632 224.522 345.903 228.606 349.149 L 236.032 355.050 241.234 350.275 C 244.094 347.649 247.125 344.787 247.968 343.915 C 248.810 343.044 255.688 336.566 263.250 329.519 L 277.000 316.708 277.000 290.599 L 277.000 264.489 267.750 256.118 C 262.663 251.514 255.461 244.822 251.747 241.247 L 244.995 234.748 241.747 237.380 C 218.464 256.256 198.842 263.500 171.000 263.500 C 144.075 263.500 123.488 256.150 102.592 239.076 C 95.825 233.545 84.840 221.360 80.738 214.832 C 66.091 191.522 60.902 164.246 65.921 136.931 C 70.877 109.954 85.202 87.183 108.000 70.037 C 114.086 65.459 132.208 56.000 134.891 56.000 C 135.831 56.000 137.028 55.607 137.550 55.128 C 139.369 53.457 152.655 50.882 163.042 50.186 C 176.353 49.294 192.838 51.146 203.500 54.732 "/></g>
<g fill="#FE0000FE" stroke="#FE0000FE">
<path d="M 295.425 221.250 C 286.316 237.021 277.516 251.005 276.858 250.753 C 276.493 250.614 272.599 247.125 268.204 243.000 C 263.808 238.875 258.385 233.826 256.152 231.781 L 252.092 228.062 249.077 231.077 L 246.061 234.092 250.458 238.296 C 252.876 240.608 260.037 247.225 266.372 253.000 L 277.891 263.500 277.945 290.633 L 278.000 317.766 266.803 328.133 C 260.644 333.835 251.757 342.067 247.053 346.427 C 242.349 350.787 238.350 354.724 238.167 355.177 C 237.503 356.815 235.109 355.933 231.081 352.568 C 222.551 345.441 211.227 338.964 198.500 333.933 C 181.593 327.250 152.877 326.072 135.000 331.328 C 122.902 334.885 120.213 335.946 113.832 339.682 C 110.714 341.507 107.677 343.000 107.082 343.000 C 106.487 343.000 106.000 343.367 106.000 343.816 C 106.000 344.265 104.115 345.691 101.811 346.986 C 99.507 348.281 94.073 352.731 89.735 356.875 C 66.042 379.512 54.140 411.810 57.663 443.906 C 60.013 465.312 65.848 480.592 77.760 496.533 C 94.499 518.932 118.279 533.286 146.500 538.024 C 153.343 539.173 174.083 538.916 182.500 537.577 C 191.200 536.194 207.646 529.960 216.500 524.690 C 238.790 511.423 256.686 488.573 263.982 464.065 C 266.798 454.604 269.248 436.056 268.545 429.526 C 268.247 426.762 267.749 422.025 267.438 419.000 C 265.910 404.135 258.408 385.648 248.093 371.330 L 242.207 363.160 250.853 354.815 C 261.634 344.411 275.823 331.609 277.065 331.167 C 277.605 330.974 278.000 335.090 278.000 340.917 L 278.000 351.000 301.000 351.000 L 324.000 351.000 324.000 344.500 C 324.000 338.010 324.679 336.891 327.186 339.250 C 327.916 339.938 333.911 345.450 340.507 351.500 C 353.448 363.370 356.000 365.923 356.000 367.005 C 356.000 367.389 353.983 370.775 351.518 374.528 C 344.997 384.456 340.362 394.650 337.568 405.211 C 334.424 417.095 332.550 432.547 333.438 439.259 C 333.820 442.142 334.346 446.300 334.607 448.500 C 337.903 476.263 356.224 505.339 380.500 521.333 C 400.651 534.610 418.979 539.633 444.093 538.761 C 457.024 538.313 459.678 537.894 470.000 534.678 C 482.672 530.729 492.915 525.638 502.496 518.529 C 522.737 503.509 537.135 480.823 543.133 454.500 C 544.837 447.021 544.982 418.167 543.344 412.500 C 535.412 385.066 529.000 373.531 512.952 357.819 C 501.946 347.045 487.198 337.801 475.000 334.031 C 472.525 333.266 470.050 332.318 469.500 331.924 C 465.560 329.104 431.339 327.288 420.000 329.297 C 410.512 330.978 393.497 337.379 385.500 342.275 C 381.069 344.988 373.502 350.571 370.589 353.275 C 368.890 354.852 366.338 356.988 364.917 358.021 C 361.914 360.204 364.120 361.809 343.000 342.068 C 336.125 335.641 329.038 329.098 327.250 327.526 L 324.000 324.669 324.055 294.085 L 324.109 263.500 335.628 253.000 C 341.963 247.225 349.150 240.584 351.599 238.242 L 356.052 233.984 352.918 230.920 C 349.893 227.963 349.722 227.919 348.021 229.678 C 341.227 236.703 326.437 249.500 325.111 249.500 C 323.778 249.500 315.340 237.343 312.245 230.964 C 310.039 226.415 301.606 213.000 300.952 213.000 C 300.533 213.000 298.046 216.713 295.425 221.250 M 462.573 339.024 C 470.418 341.122 472.935 342.010 479.448 344.976 C 481.891 346.089 484.199 347.000 484.577 347.000 C 486.579 347.000 505.556 361.791 510.504 367.209 C 534.749 393.751 542.644 430.265 531.512 464.365 C 521.416 495.294 493.587 520.887 462.221 528.088 C 459.625 528.684 456.375 529.442 455.000 529.772 C 449.911 530.994 423.615 530.204 418.000 528.661 C 398.512 523.305 385.264 515.982 372.554 503.542 C 360.145 491.396 358.561 489.270 352.040 476.000 C 348.126 468.035 347.681 466.910 345.716 460.000 C 338.900 436.023 341.686 410.125 353.470 387.925 C 355.687 383.749 358.909 378.645 360.632 376.582 L 363.764 372.831 367.159 376.165 C 369.026 377.999 375.230 383.775 380.945 389.000 C 400.733 407.090 403.378 409.528 409.698 415.500 L 416.047 421.500 414.544 427.221 C 413.413 431.525 413.275 434.179 413.989 437.941 C 418.589 462.199 451.139 466.818 462.597 444.839 C 465.091 440.057 465.136 426.682 462.674 422.161 C 457.765 413.143 449.184 408.000 439.048 408.000 C 435.707 408.000 432.191 408.450 431.236 409.000 C 430.281 409.549 428.375 410.448 427.000 410.997 C 425.625 411.546 423.737 412.541 422.804 413.208 C 421.355 414.245 420.190 413.555 414.790 408.461 C 411.315 405.182 403.796 398.225 398.082 393.000 C 376.786 373.528 370.000 366.954 370.000 365.793 C 370.000 365.323 371.463 363.659 373.250 362.094 C 389.562 347.816 408.319 339.019 426.000 337.355 C 429.575 337.019 432.725 336.526 433.000 336.260 C 434.090 335.204 455.921 337.244 462.573 339.024 M 183.500 338.546 C 198.279 341.970 214.834 350.001 224.345 358.359 L 229.189 362.617 222.845 368.608 C 206.904 383.660 202.100 388.139 196.527 393.140 C 193.242 396.088 187.480 401.410 183.724 404.966 L 176.893 411.431 172.062 409.716 C 159.014 405.081 145.858 410.085 139.342 422.161 C 136.819 426.836 136.829 439.098 139.359 444.381 C 143.851 453.758 152.463 459.000 163.379 459.000 C 166.956 459.000 170.160 458.550 170.500 458.000 C 170.840 457.450 171.910 457.000 172.879 457.000 C 175.179 457.000 182.326 450.848 184.807 446.733 C 188.349 440.857 189.295 434.231 187.549 427.528 C 186.701 424.272 185.556 421.156 185.004 420.604 C 182.853 418.453 184.285 416.041 191.661 409.399 C 195.875 405.605 200.502 401.375 201.944 400.000 C 203.386 398.625 207.256 395.025 210.545 392.000 C 213.834 388.975 220.482 382.788 225.318 378.250 C 230.155 373.713 234.537 370.000 235.056 370.000 C 238.907 370.000 252.669 393.453 255.887 405.500 C 262.746 431.177 260.746 454.919 249.926 476.258 C 245.397 485.190 244.877 486.004 238.712 493.776 C 223.955 512.383 203.487 524.803 180.500 529.099 C 173.316 530.442 153.244 530.789 147.000 529.679 C 117.802 524.486 91.682 506.067 77.705 480.814 C 69.188 465.426 65.575 450.422 65.830 431.500 C 66.038 416.107 69.438 401.623 75.530 390.176 C 81.191 379.540 84.181 375.332 92.984 365.620 C 97.660 360.460 111.090 350.503 118.277 346.866 C 126.835 342.537 141.546 337.867 149.500 336.955 C 158.404 335.934 175.723 336.745 183.500 338.546 "/></g>
<g fill="#00AE50FE" stroke="#00AE50FE">
<path d="M 154.000 52.132 C 147.301 53.498 137.772 55.984 135.500 56.958 C 122.972 62.327 115.294 66.418 108.977 71.091 C 88.623 86.146 75.438 105.433 68.363 130.500 C 65.767 139.697 65.545 141.826 65.600 157.000 C 65.643 169.036 66.092 174.988 67.261 179.000 C 68.143 182.025 69.499 186.750 70.276 189.501 C 73.750 201.807 82.834 217.450 92.608 227.958 C 106.489 242.880 123.043 253.134 142.529 258.880 C 149.882 261.049 170.556 263.313 176.211 262.569 C 178.020 262.331 182.425 261.859 186.000 261.520 C 207.100 259.520 231.128 247.123 247.412 229.837 C 260.368 216.083 268.462 201.710 273.564 183.396 C 276.045 174.487 276.326 171.854 276.374 157.000 C 276.423 141.870 276.195 139.670 273.621 130.500 C 260.148 82.494 218.766 50.671 170.380 51.107 C 163.846 51.166 156.475 51.627 154.000 52.132 M 200.534 64.370 C 215.737 69.317 227.100 76.231 238.548 87.500 C 243.577 92.450 249.143 98.652 250.917 101.283 C 271.428 131.703 273.659 170.157 256.788 202.500 C 254.066 207.718 243.540 222.617 240.538 225.500 C 238.286 227.664 229.599 234.430 225.107 237.520 C 201.023 254.087 167.559 258.432 139.000 248.700 C 127.652 244.833 113.372 236.042 103.118 226.611 C 98.068 221.966 88.247 208.446 84.538 201.033 C 66.092 164.165 72.117 120.740 99.816 90.921 C 110.766 79.132 123.983 70.374 138.500 65.286 C 150.624 61.037 158.195 60.012 174.500 60.412 C 188.476 60.755 190.253 61.025 200.534 64.370 "/></g>
<g fill="#00AE50FE" stroke="#00AE50FE">
<path d="M 414.000 52.132 C 405.678 53.829 397.534 56.099 392.500 58.124 C 360.708 70.911 337.779 96.714 328.567 130.068 C 320.994 157.492 326.193 189.839 342.168 214.682 C 346.668 221.680 359.253 235.270 366.000 240.419 C 387.924 257.147 412.585 264.234 440.856 261.929 C 462.729 260.147 480.639 252.792 498.187 238.386 C 515.892 223.850 527.147 206.337 533.621 183.249 C 536.084 174.462 536.358 171.871 536.388 157.000 C 536.419 141.909 536.182 139.646 533.618 130.500 C 520.182 82.578 478.693 50.672 430.380 51.107 C 423.846 51.166 416.475 51.627 414.000 52.132 M 449.000 61.424 C 481.893 67.363 510.935 91.815 522.132 123.000 C 539.817 172.255 516.826 225.487 468.954 246.126 C 455.838 251.781 447.115 253.468 431.000 253.468 C 406.889 253.468 390.127 247.778 371.000 233.100 C 360.457 225.009 361.570 226.132 354.088 216.040 C 340.496 197.704 334.000 178.688 334.000 157.231 C 334.000 130.960 343.378 107.880 361.500 89.555 C 366.450 84.549 371.400 79.787 372.500 78.973 C 383.945 70.502 401.785 62.845 414.378 61.000 C 422.848 59.759 441.010 59.981 449.000 61.424 "/></g>
<g fill="#FEFEFEFE" stroke="#FEFEFEFE">
<path d="M 433.500 337.718 C 411.936 339.159 387.387 349.704 373.674 363.417 L 370.988 366.103 378.244 372.929 C 382.235 376.683 393.557 387.154 403.404 396.198 L 421.308 412.641 426.904 409.602 C 431.686 407.005 433.528 406.571 439.565 406.618 C 445.401 406.665 447.556 407.178 451.945 409.566 C 457.698 412.698 463.199 419.044 465.068 424.706 C 465.749 426.771 466.055 431.485 465.797 435.945 C 465.413 442.580 464.910 444.271 462.106 448.346 C 448.700 467.831 420.378 463.199 413.065 440.327 C 411.804 436.384 411.979 430.363 413.541 423.926 C 414.105 421.601 412.446 419.770 396.333 404.942 C 386.525 395.916 376.298 386.499 373.607 384.015 C 370.915 381.532 367.797 378.488 366.676 377.250 C 365.556 376.013 364.280 375.000 363.841 375.000 C 362.235 375.000 354.060 388.731 350.744 397.000 C 344.108 413.545 342.160 428.520 344.413 445.672 C 350.774 494.085 390.576 529.178 439.145 529.196 C 476.335 529.210 509.131 508.875 525.356 475.741 C 546.787 431.977 532.322 379.796 491.319 352.958 C 475.104 342.345 452.687 336.436 433.500 337.718 "/></g>
<g fill="#FEFEFEFE" stroke="#FEFEFEFE">
<path d="M 153.500 338.081 C 117.808 341.586 87.191 364.324 73.787 397.281 C 59.730 431.844 67.348 472.528 92.896 499.330 C 126.110 534.173 179.502 539.241 218.752 511.276 C 238.542 497.176 253.114 474.021 257.071 450.386 C 258.539 441.618 258.522 425.530 257.035 416.500 C 255.543 407.435 251.743 396.506 247.430 388.876 C 245.544 385.539 244.000 382.607 244.000 382.361 C 244.000 382.115 242.137 379.446 239.859 376.430 C 235.799 371.051 235.678 370.980 233.640 372.723 C 228.029 377.520 185.000 417.145 185.000 417.514 C 185.000 417.747 186.013 419.865 187.250 422.219 C 190.446 428.301 190.405 438.759 187.160 445.000 C 181.823 455.266 173.578 460.397 162.500 460.345 C 146.846 460.273 135.973 449.271 136.022 433.554 C 136.058 421.975 141.433 413.276 151.243 408.917 C 157.634 406.077 167.931 405.821 173.052 408.376 C 176.841 410.266 175.344 411.225 189.448 397.885 C 193.877 393.697 204.025 384.312 212.000 377.030 C 225.197 364.979 228.737 361.000 226.262 361.000 C 225.775 361.000 224.442 360.129 223.300 359.065 C 222.158 358.001 218.021 355.078 214.108 352.570 C 196.854 341.510 174.063 336.061 153.500 338.081 "/></g>
<g fill="#FEFEFEFE" stroke="#FEFEFEFE">
<path d="M 153.500 62.491 C 141.294 65.284 138.542 66.151 131.359 69.470 C 105.267 81.525 86.668 103.387 78.363 131.765 C 75.793 140.548 75.514 142.967 75.507 156.500 C 75.500 171.472 75.867 173.929 80.120 187.385 C 82.511 194.949 89.990 209.003 95.261 215.837 C 110.607 235.733 135.723 249.527 160.924 251.898 C 181.294 253.814 199.596 250.246 216.691 241.026 C 224.228 236.960 236.000 228.501 236.000 227.150 C 236.000 226.526 226.276 217.484 190.827 185.148 C 185.029 179.859 184.930 179.816 182.419 181.461 C 181.003 182.389 176.809 183.384 172.952 183.707 C 166.570 184.242 165.515 184.036 159.501 181.075 C 155.912 179.308 151.772 176.354 150.301 174.510 C 141.884 163.962 142.035 149.161 150.662 139.082 C 159.964 128.215 177.441 126.857 188.320 136.156 C 198.504 144.860 200.566 156.422 194.554 171.106 C 194.069 172.291 198.173 176.618 210.198 187.602 C 219.164 195.791 230.482 206.242 235.349 210.827 L 244.198 219.163 245.791 216.831 C 246.667 215.549 247.674 214.275 248.028 214.000 C 249.534 212.830 255.886 201.992 258.296 196.479 C 259.734 193.190 262.156 186.450 263.680 181.500 C 266.229 173.218 266.446 171.224 266.403 156.500 C 266.361 142.128 266.087 139.620 263.714 131.857 C 257.574 111.778 246.822 95.142 231.906 82.647 C 228.749 80.001 226.336 78.343 218.500 73.432 C 213.801 70.487 205.266 67.029 196.000 64.318 C 185.420 61.221 163.220 60.267 153.500 62.491 "/></g>
<g fill="#FEFEFEFE" stroke="#FEFEFEFE">
<path d="M 413.500 62.446 C 391.931 67.330 376.934 75.271 363.475 88.936 C 351.619 100.975 343.502 114.748 338.390 131.501 C 335.891 139.689 335.642 141.941 335.620 156.500 C 335.598 171.155 335.832 173.299 338.405 182.000 C 341.552 192.640 349.724 209.201 354.596 214.808 L 357.803 218.500 360.330 216.500 C 363.699 213.833 408.000 172.873 408.000 172.425 C 408.000 172.232 407.100 169.791 406.000 167.000 C 402.249 157.485 404.028 146.832 410.662 139.082 C 419.964 128.215 437.441 126.857 448.320 136.156 C 454.320 141.284 457.132 146.774 457.759 154.583 C 459.028 170.392 448.659 182.344 432.500 183.700 C 427.945 184.082 425.286 183.720 421.459 182.198 L 416.417 180.194 403.959 191.704 C 397.106 198.035 385.763 208.427 378.750 214.798 C 371.738 221.168 366.000 226.672 366.000 227.029 C 366.000 228.319 378.517 237.362 385.563 241.162 C 396.693 247.166 408.928 250.905 420.825 251.938 C 451.323 254.586 477.209 245.595 497.788 225.206 C 511.645 211.477 517.908 200.946 523.575 181.845 C 526.063 173.459 526.355 170.909 526.416 157.000 C 526.476 143.680 526.162 140.382 524.190 133.549 C 517.128 109.076 503.074 89.419 483.358 76.435 C 478.819 73.446 474.827 71.000 474.488 71.000 C 474.149 71.000 471.460 69.897 468.513 68.549 C 458.610 64.019 447.592 61.812 433.000 61.436 C 424.036 61.205 417.484 61.544 413.500 62.446 "/></g>
<g fill="#00AE50FE" stroke="#00AE50FE">
<path d="M 420.500 133.371 C 410.237 138.199 404.107 148.748 405.362 159.425 C 406.153 166.157 407.792 169.288 413.640 175.243 C 418.922 180.623 423.354 182.281 432.179 182.180 C 439.207 182.100 445.642 179.311 449.845 174.523 C 455.267 168.348 456.461 165.186 456.457 157.000 C 456.453 147.967 454.313 143.206 447.601 137.298 C 439.962 130.574 429.630 129.077 420.500 133.371 "/></g>
<g fill="#00AE50FE" stroke="#00AE50FE">
<path d="M 160.444 133.374 C 140.613 142.608 140.160 170.637 159.688 180.091 C 165.161 182.741 176.183 182.956 181.330 180.514 C 185.592 178.491 192.442 171.926 194.759 167.645 C 197.372 162.816 197.088 150.699 194.236 145.307 C 191.713 140.538 184.473 134.067 179.710 132.326 C 174.217 130.317 166.055 130.761 160.444 133.374 "/></g>
<g fill="#FE0000FE" stroke="#FE0000FE">
<path d="M 391.500 189.635 C 368.617 210.648 359.996 218.902 360.022 219.772 C 360.034 220.173 360.864 221.565 361.865 222.867 C 364.325 226.067 366.116 225.314 374.051 217.747 C 377.654 214.311 388.116 204.574 397.301 196.109 C 406.485 187.643 414.000 180.270 414.000 179.723 C 414.000 178.916 409.408 173.969 408.698 174.012 C 408.589 174.018 400.850 181.049 391.500 189.635 "/></g>
<g fill="#FE0000FE" stroke="#FE0000FE">
<path d="M 190.552 176.365 C 189.148 177.665 188.000 179.177 188.000 179.724 C 188.000 180.272 195.313 187.468 204.250 195.717 C 213.188 203.966 221.902 212.017 223.616 213.607 C 237.288 226.300 237.877 226.584 240.735 221.857 C 242.276 219.308 242.229 219.118 239.417 216.545 C 237.813 215.078 234.250 211.738 231.500 209.124 C 228.750 206.510 220.200 198.600 212.500 191.545 C 204.800 184.491 197.469 177.658 196.210 176.360 C 194.950 175.062 193.735 174.000 193.511 174.000 C 193.287 174.000 191.955 175.064 190.552 176.365 "/></g>
<g fill="#FEAAAAFE" stroke="#FEAAAAFE">
<path d="M 324.556 263.777 C 324.250 264.083 324.000 277.665 324.000 293.958 L 324.000 323.584 328.750 328.042 L 333.500 332.500 329.222 327.934 L 324.945 323.368 325.028 293.295 C 325.074 276.755 324.862 263.472 324.556 263.777 "/></g>
<g fill="#FEAAAAFE" stroke="#FEAAAAFE">
<path d="M 277.032 290.344 L 277.563 317.500 277.782 290.809 C 277.902 276.129 277.663 263.909 277.250 263.653 C 276.838 263.398 276.739 275.409 277.032 290.344 "/></g>
<g fill="#FEAAAAFE" stroke="#FEAAAAFE">
<path d="M 274.872 333.750 C 273.635 335.328 273.669 335.368 275.213 334.159 C 276.800 332.915 276.949 333.535 277.253 342.659 L 277.581 352.500 277.791 342.250 C 278.000 332.017 277.461 330.449 274.872 333.750 "/></g>
<g fill="#FEAAAAFE" stroke="#FEAAAAFE">
<path d="M 507.000 501.953 L 502.500 506.556 507.000 501.953 L 511.500 497.350 507.000 501.953 "/></g>
<g fill="#FEAAAAFE" stroke="#FEAAAAFE">
<path d="M 95.000 502.000 L 100.000 507.000 95.000 502.000 L 90.000 497.000 95.000 502.000 "/></g>
<g fill="#FEAAAAFE" stroke="#FEAAAAFE">
<path d="M 406.000 399.000 L 411.000 404.000 406.000 399.000 L 401.000 394.000 406.000 399.000 "/></g>
<g fill="#FEAAAAFE" stroke="#FEAAAAFE">
<path d="M 507.000 365.000 L 512.000 370.000 507.000 365.000 L 502.000 360.000 507.000 365.000 "/></g>
</svg>
